<svg width="33" height="31" viewBox="0 0 33 31" fill="none" xmlns="http://www.w3.org/2000/svg">
<g filter="url(#filter0_d_2_476)">
<ellipse cx="16.4932" cy="11.4021" rx="12.4932" ry="11.4021" fill="#FFB400"/>
<g clip-path="url(#clip0_2_476)">
<path d="M21.3452 11.1649C21.2954 10.2924 20.963 9.45305 20.3899 8.75322C20.2153 8.92484 20.0287 9.08592 19.8312 9.23544C19.2245 9.69539 18.5465 10.0708 17.8192 10.3495C17.9206 10.5435 18.0136 10.7314 18.0955 10.9088V10.9104C18.1187 10.96 18.1409 11.0099 18.1623 11.0601C19.0818 10.9659 20.0511 11.0002 20.9906 11.1161C21.1157 11.1316 21.2335 11.1482 21.3452 11.1649ZM15.6457 7.03554C16.2375 7.79665 16.7833 8.58674 17.2805 9.40227C18.0233 9.13511 18.6373 8.79812 19.1316 8.42288C19.3032 8.2938 19.4647 8.15397 19.615 8.0044C18.7411 7.33358 17.6354 6.96644 16.4935 6.96792C16.2093 6.96774 15.9256 6.99018 15.6457 7.03498V7.03554ZM11.7887 10.2919C12.2024 10.2823 12.6156 10.2596 13.0276 10.2237C14.0233 10.1424 15.0106 9.99008 15.9803 9.76809C15.4735 8.96452 14.9263 8.18272 14.3406 7.42519C13.7149 7.70809 13.1632 8.11049 12.7229 8.60511C12.2825 9.09973 11.964 9.67499 11.7887 10.2919ZM12.7178 14.1928C12.9535 13.8786 13.2632 13.5249 13.6744 13.1403C14.5574 12.3144 15.5995 11.6715 16.8056 11.3167L16.8433 11.3067C16.7431 11.105 16.6489 10.9249 16.5542 10.7552C15.4392 11.0518 14.2647 11.2369 13.0944 11.3328C12.5235 11.3799 12.0116 11.4004 11.635 11.4037C11.6339 12.4195 12.0166 13.4045 12.7185 14.1928H12.7178ZM18.3184 15.512C18.0842 14.4341 17.7527 13.3757 17.3273 12.3477C16.1115 12.7506 15.1428 13.3398 14.394 14.0426C14.0918 14.3211 13.8236 14.6287 13.5942 14.9599C14.4315 15.5302 15.4487 15.8376 16.4935 15.8362C17.1189 15.8371 17.7387 15.7273 18.3184 15.5131V15.512ZM19.4559 14.9162C20.4041 14.2509 21.05 13.2898 21.2699 12.2169C21.0634 12.1697 20.8017 12.1226 20.5138 12.086C19.8738 12.0019 19.2244 11.9958 18.5826 12.0678C18.944 12.9983 19.2358 13.9501 19.4559 14.9167V14.9162ZM16.4935 16.9448C13.1393 16.9448 10.4204 14.4633 10.4204 11.4021C10.4204 8.34084 13.1393 5.85938 16.4935 5.85938C19.8476 5.85938 22.5665 8.34084 22.5665 11.4021C22.5665 14.4633 19.8476 16.9448 16.4935 16.9448Z" fill="#2B2B2B"/>
</g>
</g>
<defs>
<filter id="filter0_d_2_476" x="0" y="0" width="32.9863" height="30.8042" filterUnits="userSpaceOnUse" color-interpolation-filters="sRGB">
<feFlood flood-opacity="0" result="BackgroundImageFix"/>
<feColorMatrix in="SourceAlpha" type="matrix" values="0 0 0 0 0 0 0 0 0 0 0 0 0 0 0 0 0 0 127 0" result="hardAlpha"/>
<feOffset dy="4"/>
<feGaussianBlur stdDeviation="2"/>
<feComposite in2="hardAlpha" operator="out"/>
<feColorMatrix type="matrix" values="0 0 0 0 0 0 0 0 0 0 0 0 0 0 0 0 0 0 0.25 0"/>
<feBlend mode="normal" in2="BackgroundImageFix" result="effect1_dropShadow_2_476"/>
<feBlend mode="normal" in="SourceGraphic" in2="effect1_dropShadow_2_476" result="shape"/>
</filter>
<clipPath id="clip0_2_476">
<rect width="14.5753" height="13.3025" fill="white" transform="translate(9.20557 4.75098)"/>
</clipPath>
</defs>
</svg>
