<svg width="25" height="23" viewBox="0 0 25 23" fill="none" xmlns="http://www.w3.org/2000/svg">
<ellipse cx="12.4932" cy="11.4021" rx="12.4932" ry="11.4021" fill="#FFB400"/>
<g clip-path="url(#clip0_2_468)">
<path d="M9.42043 7.52218C9.42027 7.81618 9.29215 8.09809 9.06425 8.30588C8.83636 8.51366 8.52735 8.63032 8.20522 8.63017C7.88308 8.63002 7.5742 8.51309 7.34653 8.30509C7.11886 8.0971 6.99105 7.81508 6.99121 7.52107C6.99137 7.22707 7.11949 6.94517 7.34739 6.73738C7.57529 6.52959 7.8843 6.41294 8.20643 6.41309C8.52857 6.41323 8.83744 6.53017 9.06511 6.73816C9.29278 6.94616 9.4206 7.22818 9.42043 7.52218ZM9.45687 9.45104H7.02765V16.3905H9.45687V9.45104ZM13.295 9.45104H10.878V16.3905H13.2708V12.749C13.2708 10.7203 16.1676 10.5319 16.1676 12.749V16.3905H18.5665V11.9951C18.5665 8.5753 14.2789 8.70278 13.2708 10.3822L13.295 9.45104Z" fill="#2B2B2B"/>
</g>
<defs>
<clipPath id="clip0_2_468">
<rect width="14.5753" height="13.3025" fill="white" transform="translate(5.20557 4.75098)"/>
</clipPath>
</defs>
</svg>
