<svg width="25" height="23" viewBox="0 0 25 23" fill="none" xmlns="http://www.w3.org/2000/svg">
<ellipse cx="12.4932" cy="11.4021" rx="12.4932" ry="11.4021" fill="#FFB400"/>
<g clip-path="url(#clip0_2_464)">
<path d="M18.6649 7.88591C18.2012 8.07308 17.7095 8.19601 17.2061 8.25062C17.7367 7.96098 18.1339 7.50513 18.3235 6.96804C17.8256 7.23852 17.2796 7.42808 16.7105 7.53062C16.3283 7.15736 15.8217 6.90982 15.2694 6.82647C14.7171 6.74312 14.1501 6.82863 13.6566 7.06972C13.163 7.31081 12.7706 7.69396 12.5402 8.1596C12.3099 8.62525 12.2546 9.14731 12.3829 9.64461C11.373 9.59841 10.385 9.3589 9.48317 8.94161C8.58129 8.52432 7.78565 7.93859 7.1479 7.22245C6.92216 7.57632 6.80353 7.9786 6.80416 8.38808C6.80416 9.19177 7.25236 9.90179 7.93375 10.3175C7.53051 10.3059 7.13614 10.2065 6.78352 10.0276V10.0564C6.78364 10.5917 6.98658 11.1104 7.35794 11.5247C7.72929 11.939 8.2462 12.2233 8.82103 12.3295C8.44669 12.4221 8.05419 12.4357 7.67322 12.3694C7.83529 12.8301 8.15117 13.2331 8.57664 13.5218C9.00211 13.8105 9.51586 13.9706 10.046 13.9796C9.51911 14.3572 8.91588 14.6364 8.27074 14.8011C7.6256 14.9658 6.95121 15.0129 6.28613 14.9396C7.44712 15.621 8.79862 15.9828 10.179 15.9816C14.851 15.9816 17.4059 12.4492 17.4059 9.38577C17.4059 9.286 17.4029 9.18512 17.398 9.08646C17.8953 8.75842 18.3245 8.35206 18.6655 7.88646L18.6649 7.88591Z" fill="#2B2B2B"/>
</g>
<defs>
<clipPath id="clip0_2_464">
<rect width="14.5753" height="13.3025" fill="white" transform="translate(5.20557 4.75098)"/>
</clipPath>
</defs>
</svg>
