<svg width="25" height="23" viewBox="0 0 25 23" fill="none" xmlns="http://www.w3.org/2000/svg">
<ellipse cx="12.4932" cy="11.4021" rx="12.4932" ry="11.4021" fill="#FFB400"/>
<g clip-path="url(#clip0_2_472)">
<path d="M18.2885 8.35283C18.566 9.34054 18.566 11.4024 18.566 11.4024C18.566 11.4024 18.566 13.4643 18.2885 14.452C18.1342 14.998 17.683 15.4275 17.1115 15.5728C16.0737 15.8366 12.493 15.8366 12.493 15.8366C12.493 15.8366 8.91413 15.8366 7.87442 15.5728C7.30052 15.4253 6.84989 14.9963 6.69746 14.452C6.41992 13.4643 6.41992 11.4024 6.41992 11.4024C6.41992 11.4024 6.41992 9.34054 6.69746 8.35283C6.85172 7.80687 7.30294 7.37731 7.87442 7.23209C8.91413 6.96826 12.493 6.96826 12.493 6.96826C12.493 6.96826 16.0737 6.96826 17.1115 7.23209C17.6854 7.37953 18.1361 7.80854 18.2885 8.35283ZM11.2784 13.3424L14.9222 11.4024L11.2784 9.46248V13.3424Z" fill="#2B2B2B"/>
</g>
<defs>
<clipPath id="clip0_2_472">
<rect width="14.5753" height="13.3025" fill="white" transform="translate(5.20508 4.75098)"/>
</clipPath>
</defs>
</svg>
